<svg width="32" height="32" viewBox="0 0 32 32" fill="none" xmlns="http://www.w3.org/2000/svg">
<path d="M25.6938 7.10659C23.9205 6.27992 22.0005 5.67992 20.0005 5.33325C19.9653 5.33375 19.9318 5.34813 19.9071 5.37325C19.6671 5.81325 19.3871 6.38659 19.2005 6.82659C17.0791 6.50679 14.9218 6.50679 12.8005 6.82659C12.6138 6.37325 12.3338 5.81325 12.0805 5.37325C12.0671 5.34659 12.0271 5.33325 11.9871 5.33325C9.98715 5.67992 8.08048 6.27992 6.29381 7.10659C6.28048 7.10659 6.26715 7.11992 6.25382 7.13325C2.62715 12.5599 1.62715 17.8399 2.12048 23.0666C2.12048 23.0933 2.13382 23.1199 2.16048 23.1333C4.56048 24.8933 6.86715 25.9599 9.14715 26.6666C9.18715 26.6799 9.22715 26.6666 9.24048 26.6399C9.77381 25.9066 10.2538 25.1333 10.6671 24.3199C10.6938 24.2666 10.6671 24.2133 10.6138 24.1999C9.85382 23.9066 9.13381 23.5599 8.42715 23.1599C8.37382 23.1333 8.37381 23.0533 8.41382 23.0133C8.56048 22.9066 8.70715 22.7866 8.85381 22.6799C8.88048 22.6533 8.92048 22.6533 8.94715 22.6666C13.5338 24.7599 18.4805 24.7599 23.0138 22.6666C23.0405 22.6533 23.0805 22.6533 23.1071 22.6799C23.2538 22.7999 23.4005 22.9066 23.5471 23.0266C23.6005 23.0666 23.6005 23.1466 23.5338 23.1733C22.8405 23.5866 22.1071 23.9199 21.3471 24.2133C21.2938 24.2266 21.2805 24.2933 21.2938 24.3333C21.7205 25.1466 22.2005 25.9199 22.7205 26.6533C22.7605 26.6666 22.8005 26.6799 22.8405 26.6666C25.1338 25.9599 27.4405 24.8933 29.8405 23.1333C29.8671 23.1199 29.8805 23.0933 29.8805 23.0666C30.4671 17.0266 28.9071 11.7866 25.7471 7.13325C25.7338 7.11992 25.7205 7.10659 25.6938 7.10659ZM11.3605 19.8799C9.98715 19.8799 8.84048 18.6133 8.84048 17.0533C8.84048 15.4933 9.96048 14.2266 11.3605 14.2266C12.7738 14.2266 13.8938 15.5066 13.8805 17.0533C13.8805 18.6133 12.7605 19.8799 11.3605 19.8799ZM20.6538 19.8799C19.2805 19.8799 18.1338 18.6133 18.1338 17.0533C18.1338 15.4933 19.2538 14.2266 20.6538 14.2266C22.0671 14.2266 23.1871 15.5066 23.1738 17.0533C23.1738 18.6133 22.0671 19.8799 20.6538 19.8799Z" fill="#9CA3AF"/>
</svg>
