<svg width="300" height="300" viewBox="0 0 300 300" fill="none" xmlns="http://www.w3.org/2000/svg">
<path d="M250 37.5072C250.004 42.9628 248.817 48.3534 246.522 53.303C244.228 58.2527 240.881 62.642 236.716 66.1649C232.55 69.6879 227.666 72.2594 222.404 73.7003C217.142 75.1411 211.629 75.4165 206.25 74.5072L190.675 102.557C202.675 112.857 210.75 127.657 212.25 144.357L228.75 146.182C232.607 138.221 239.153 131.88 247.233 128.279C255.313 124.678 264.405 124.049 272.904 126.503C281.402 128.958 288.76 134.338 293.675 141.692C298.591 149.046 300.749 157.901 299.767 166.693C298.785 175.484 294.727 183.645 288.311 189.734C281.894 195.823 273.531 199.447 264.7 199.966C255.87 200.486 247.14 197.866 240.053 192.572C232.967 187.277 227.98 179.648 225.975 171.032L209.5 169.207C204.742 183.957 194.674 196.413 181.25 204.157L188.175 225.007C197.019 225.171 205.521 228.455 212.178 234.281C218.835 240.106 223.218 248.098 224.553 256.842C225.887 265.587 224.088 274.522 219.472 282.068C214.857 289.614 207.722 295.286 199.329 298.08C190.936 300.875 181.826 300.613 173.608 297.34C165.39 294.067 158.593 287.995 154.419 280.195C150.245 272.396 148.963 263.373 150.798 254.719C152.634 246.066 157.469 238.34 164.45 232.907L157.5 212.057C147.285 213.295 136.923 211.992 127.332 208.263C117.742 204.534 109.221 198.495 102.525 190.682L74.475 206.257C74.825 208.291 75 210.374 75 212.507C75.0015 221.084 72.0631 229.402 66.6747 236.074C61.2863 242.746 53.7735 247.37 45.389 249.174C37.0044 250.979 28.2548 249.854 20.5988 245.989C12.9428 242.124 6.84306 235.751 3.31664 227.933C-0.209781 220.115 -0.94983 211.324 1.21989 203.027C3.3896 194.729 8.33797 187.426 15.24 182.335C22.142 177.244 30.5805 174.673 39.1487 175.05C47.7169 175.427 55.8969 178.73 62.325 184.407L90.375 168.832C87.5753 159.95 86.7957 150.555 88.0934 141.334C89.391 132.112 92.733 123.297 97.875 115.532L78.675 96.3573C70.6926 100.17 61.6193 101.038 53.0587 98.8082C44.4982 96.5781 37.0016 91.3935 31.894 84.1707C26.7864 76.9479 24.3967 68.152 25.1473 59.3376C25.8978 50.5233 29.7403 42.258 35.9956 36.0028C42.2508 29.7475 50.5161 25.905 59.3304 25.1545C68.1448 24.4039 76.9407 26.7936 84.1635 31.9012C91.3863 37.0088 96.5709 44.5054 98.801 53.066C101.031 61.6265 100.163 70.6999 96.35 78.6822L115.525 97.8572C123.284 92.7028 132.101 89.3554 141.325 88.0617C150.55 86.7679 159.948 87.561 168.825 90.3822L184.4 62.3322C180.381 57.7842 177.526 52.3286 176.08 46.4339C174.634 40.5392 174.64 34.3817 176.099 28.49C177.557 22.5984 180.423 17.1487 184.452 12.6091C188.481 8.06949 193.551 4.57555 199.228 2.42737C204.904 0.279192 211.017 -0.45904 217.042 0.276081C223.067 1.0112 228.823 3.19771 233.817 6.64781C238.81 10.0979 242.891 14.7085 245.71 20.0837C248.529 25.4588 250.001 31.4378 250 37.5072Z" fill="white"/>
</svg>
